<mxfile host="app.diagrams.net" modified="2024-05-12T17:40:39.336Z" agent="Mozilla/5.0 (Windows NT 10.0; Win64; x64) AppleWebKit/537.36 (KHTML, like Gecko) Chrome/124.0.0.0 Safari/537.36 Edg/124.0.0.0" etag="6S1t3xL7MlrepIwsgfGN" version="24.4.0" type="github">
  <diagram name="Page-1" id="gUKE7Ty1ndnf_Hq8EU9M">
    <mxGraphModel dx="1236" dy="632" grid="0" gridSize="10" guides="1" tooltips="1" connect="1" arrows="1" fold="1" page="0" pageScale="1" pageWidth="850" pageHeight="1100" math="0" shadow="0">
      <root>
        <mxCell id="0" />
        <mxCell id="1" parent="0" />
      </root>
    </mxGraphModel>
  </diagram>
</mxfile>
